<?xml version="1.0" encoding="utf-8"?>
<svg version="1.1" xmlns:xlink="http://www.w3.org/1999/xlink" width="24px" height="28px" xmlns="http://www.w3.org/2000/svg">
  <g transform="matrix(1 0 0 1 -620 -185 )">
    <path d="M 19.703125 25.703125  C 19.9010416666667 25.5052083333333  20 25.2708333333333  20 25  C 20 24.7291666666667  19.9010416666667 24.4947916666667  19.703125 24.296875  C 19.5052083333333 24.0989583333333  19.2708333333333 24  19 24  C 18.7291666666667 24  18.4947916666667 24.0989583333333  18.296875 24.296875  C 18.0989583333333 24.4947916666667  18 24.7291666666667  18 25  C 18 25.2708333333333  18.0989583333333 25.5052083333333  18.296875 25.703125  C 18.4947916666667 25.9010416666667  18.7291666666667 26  19 26  C 19.2708333333333 26  19.5052083333333 25.9010416666667  19.703125 25.703125  Z M 21.5 15.8671875  C 21.8333333333333 14.8411458333333  22 13.90625  22 13.0625  C 22 11.09375  21.1302083333333 10.109375  19.390625 10.109375  C 19.1197916666667 10.109375  18.828125 10.1354166666667  18.515625 10.1875  C 18.3489583333333 9.875  18.0755208333333 9.62760416666666  17.6953125 9.4453125  C 17.3151041666667 9.26302083333333  16.9322916666667 9.171875  16.546875 9.171875  C 16.1614583333333 9.171875  15.8020833333333 9.265625  15.46875 9.453125  C 14.9479166666667 8.90104166666666  14.328125 8.625  13.609375 8.625  C 13.3489583333333 8.625  13.0598958333333 8.67708333333333  12.7421875 8.78125  C 12.4244791666667 8.88541666666666  12.1770833333333 9.015625  12 9.171875  L 12 4  C 12 3.45833333333333  11.8020833333333 2.98958333333333  11.40625 2.59375  C 11.0104166666667 2.19791666666666  10.5416666666667 2  10 2  C 9.46875 2  9.00260416666667 2.203125  8.6015625 2.609375  C 8.20052083333333 3.015625  8 3.47916666666667  8 4  L 8 13  C 7.79166666666667 13  7.5390625 12.921875  7.2421875 12.765625  C 6.9453125 12.609375  6.65885416666667 12.4375  6.3828125 12.25  C 6.10677083333333 12.0625  5.75260416666667 11.890625  5.3203125 11.734375  C 4.88802083333333 11.578125  4.44791666666667 11.5  4 11.5  C 3.30208333333333 11.5  2.79427083333333 11.7317708333333  2.4765625 12.1953125  C 2.15885416666667 12.6588541666667  2 13.2604166666667  2 14  C 2 14.25  2.72395833333333 14.71875  4.171875 15.40625  C 4.63020833333333 15.65625  4.96875 15.8489583333333  5.1875 15.984375  C 5.85416666666667 16.4010416666667  6.609375 16.984375  7.453125 17.734375  C 8.296875 18.4739583333333  8.84895833333333 19  9.109375 19.3125  C 9.703125 20.03125  10 20.7604166666667  10 21.5  L 10 22  L 20 22  L 20 21.5  C 20 20.75  20.1666666666667 19.8802083333333  20.5 18.890625  C 20.8333333333333 17.9010416666667  21.1666666666667 16.8932291666667  21.5 15.8671875  Z M 22.7421875 9.4375  C 23.5807291666667 10.3333333333333  24 11.515625  24 12.984375  C 24 14.3697916666667  23.640625 16.046875  22.921875 18.015625  C 22.3072916666667 19.7239583333333  22 20.8854166666667  22 21.5  L 22 26  C 22 26.5520833333333  21.8046875 27.0234375  21.4140625 27.4140625  C 21.0234375 27.8046875  20.5520833333333 28  20 28  L 10 28  C 9.44791666666667 28  8.9765625 27.8046875  8.5859375 27.4140625  C 8.1953125 27.0234375  8 26.5520833333333  8 26  L 8 21.5  C 8 21.3958333333333  7.9765625 21.2838541666667  7.9296875 21.1640625  C 7.8828125 21.0442708333333  7.80989583333333 20.921875  7.7109375 20.796875  C 7.61197916666667 20.671875  7.51822916666667 20.5546875  7.4296875 20.4453125  C 7.34114583333333 20.3359375  7.22395833333333 20.2109375  7.078125 20.0703125  C 6.93229166666667 19.9296875  6.8203125 19.8229166666667  6.7421875 19.75  C 6.6640625 19.6770833333333  6.55208333333333 19.578125  6.40625 19.453125  C 6.26041666666667 19.328125  6.171875 19.2552083333333  6.140625 19.234375  C 5.36979166666667 18.5572916666667  4.69791666666667 18.0364583333333  4.125 17.671875  C 3.90625 17.5364583333333  3.58333333333333 17.3645833333333  3.15625 17.15625  C 2.72916666666667 16.9479166666667  2.35416666666667 16.7552083333333  2.03125 16.578125  C 1.70833333333333 16.4010416666667  1.38020833333333 16.1901041666667  1.046875 15.9453125  C 0.713541666666667 15.7005208333333  0.455729166666667 15.4140625  0.2734375 15.0859375  C 0.0911458333333333 14.7578125  0 14.3958333333333  0 14  C 0 12.6979166666667  0.348958333333333 11.6223958333333  1.046875 10.7734375  C 1.74479166666667 9.92447916666666  2.72916666666667 9.5  4 9.5  C 4.70833333333333 9.5  5.375 9.61458333333333  6 9.84375  L 6 4  C 6 2.91666666666667  6.39583333333333 1.97916666666666  7.1875 1.1875  C 7.97916666666667 0.395833333333337  8.91145833333333 0  9.984375 0  C 11.078125 0  12.0208333333333 0.393229166666667  12.8125 1.1796875  C 13.6041666666667 1.96614583333333  14 2.90625  14 4  L 14 6.640625  C 14.6458333333333 6.68229166666666  15.265625 6.875  15.859375 7.21875  C 16.078125 7.1875  16.3020833333333 7.171875  16.53125 7.171875  C 17.5833333333333 7.171875  18.5104166666667 7.484375  19.3125 8.109375  C 20.7604166666667 8.09895833333333  21.9036458333333 8.54166666666666  22.7421875 9.4375  Z " fill-rule="nonzero" fill="#333333" stroke="none" transform="matrix(1 0 0 1 620 185 )" />
  </g>
</svg>