<?xml version="1.0" encoding="UTF-8"?><svg id="_层_1" xmlns="http://www.w3.org/2000/svg" viewBox="0 0 964.3 183"><defs><style>.cls-1{fill:#fff;}</style></defs><path class="cls-1" d="M149.96,0V106.9c0,44.81-29.04,75.85-75.1,75.85C31.29,182.75,0,155.71,0,108.4H27.54c0,30.79,16.77,48.07,47.31,48.07s47.06-20.53,47.06-49.57V0h28.04Z"/><path class="cls-1" d="M191.51,27.79V0h27.79V27.79h-27.79Z"/><path class="cls-1" d="M384.27,130.19V0h28.04V183h-21.28L291.64,53.85V183h-28.29V0h21.53l99.39,130.19Z"/><path class="cls-1" d="M585.04,44.56c-12.52-12.27-31.04-18.78-47.31-18.78-41.06,0-64.84,30.79-64.59,67.84,0,32.04,19.03,63.09,64.59,63.09,15.02,0,28.79-3.76,42.81-15.52v-35.55h-48.82v-25.03h74.85v71.85c-17.52,19.28-39.3,30.54-68.84,30.54-64.34,0-92.13-42.81-92.13-89.37,0-50.57,32.29-93.63,92.13-93.63,23.28,0,46.81,8.76,64.84,26.54l-17.52,18.03Z"/><path class="cls-1" d="M763.03,183V106.65h-92.63v76.36h-28.04V0h28.04V80.61h92.63V0h27.79V183h-27.79Z"/><path class="cls-1" d="M964.3,183h-129.43V0h128.68V27.29h-100.64v51.57h101.39v26.04h-101.39v50.57h101.39v27.54Z"/><path class="cls-1" d="M191.51,41.22h27.79v127.89c0,7.67-6.23,13.89-13.89,13.89h0c-7.67,0-13.89-6.23-13.89-13.89V41.22h0Z"/></svg>